<?xml version="1.0" encoding="UTF-8" standalone="no"?>
<!-- Created with Inkscape (http://www.inkscape.org/) -->

<svg
   xmlns:dc="http://purl.org/dc/elements/1.1/"
   xmlns:cc="http://creativecommons.org/ns#"
   xmlns:rdf="http://www.w3.org/1999/02/22-rdf-syntax-ns#"
   xmlns:svg="http://www.w3.org/2000/svg"
   xmlns="http://www.w3.org/2000/svg"
   xmlns:sodipodi="http://sodipodi.sourceforge.net/DTD/sodipodi-0.dtd"
   xmlns:inkscape="http://www.inkscape.org/namespaces/inkscape"
   width="936.32812"
   height="499.61075"
   viewBox="0 0 247.73681 132.18868"
   version="1.1"
   id="svg6227"
   inkscape:version="0.92.3 (2405546, 2018-03-11)"
   sodipodi:docname="sprechblasen.svg">
  <defs
     id="defs6221" />
  <sodipodi:namedview
     id="base"
     pagecolor="#ffffff"
     bordercolor="#666666"
     borderopacity="1.0"
     inkscape:pageopacity="0.0"
     inkscape:pageshadow="2"
     inkscape:zoom="0.35"
     inkscape:cx="-131.71989"
     inkscape:cy="672.78216"
     inkscape:document-units="px"
     inkscape:current-layer="layer1"
     showgrid="false"
     units="px"
     showborder="false"
     showguides="true"
     inkscape:guide-bbox="true"
     fit-margin-top="0"
     fit-margin-left="0"
     fit-margin-right="0"
     fit-margin-bottom="0"
     inkscape:window-width="1920"
     inkscape:window-height="1025"
     inkscape:window-x="0"
     inkscape:window-y="27"
     inkscape:window-maximized="1">
    <sodipodi:guide
       position="-257.85683,-0.39781518"
       orientation="0,1"
       id="guide6778"
       inkscape:locked="false"
       inkscape:label=""
       inkscape:color="rgb(0,0,255)" />
    <sodipodi:guide
       position="-241.22588,131.89385"
       orientation="0,1"
       id="guide6780"
       inkscape:locked="false"
       inkscape:label=""
       inkscape:color="rgb(0,0,255)" />
    <sodipodi:guide
       position="-0.8330304,54.030758"
       orientation="1,0"
       id="guide6782"
       inkscape:locked="false"
       inkscape:label=""
       inkscape:color="rgb(0,0,255)" />
    <sodipodi:guide
       position="245.60745,159.10813"
       orientation="1,0"
       id="guide6784"
       inkscape:locked="false" />
  </sodipodi:namedview>
  <metadata
     id="metadata6224">
    <rdf:RDF>
      <cc:Work
         rdf:about="">
        <dc:format>image/svg+xml</dc:format>
        <dc:type
           rdf:resource="http://purl.org/dc/dcmitype/StillImage" />
        <dc:title></dc:title>
      </cc:Work>
    </rdf:RDF>
  </metadata>
  <g
     inkscape:label="Layer 1"
     inkscape:groupmode="layer"
     id="layer1"
     transform="translate(-0.8330304,-164.4135)">
    <path
       style="fill:#000000;stroke-width:3.00522065"
       d="m 95.408057,290.82452 c -10.419736,-5.27516 -15.637523,-6.29723 -22.291531,-4.36643 -11.231409,3.2591 -38.378735,0.35666 -49.251232,-5.26589 -28.5648776,-14.7715 -30.9746782,-53.15856 -4.905515,-78.13911 27.207523,-26.07128 71.787527,-35.65169 98.875761,-21.24877 11.46,6.0934 14.01298,6.56572 15.43656,2.85591 0.93798,-2.44486 9.42514,-7.97902 18.86007,-12.29846 13.2217,-6.05309 22.01435,-7.87496 38.35359,-7.947 31.52209,-0.13848 48.29409,11.0342 56.20654,37.44369 2.84349,9.49064 2.56581,13.83037 -1.57949,24.68467 -2.76616,7.24327 -8.25859,16.20317 -12.20524,19.91083 -9.96408,9.36077 -44.18113,21.21135 -61.2451,21.21135 -11.46566,0 -16.39472,1.8053 -25.5623,9.36192 -6.24668,5.14903 -12.06787,8.65165 -12.93594,7.78357 -0.86819,-0.86817 -0.26849,-7.44754 1.33531,-14.62104 2.81874,-12.61735 2.92423,-12.71256 3.23559,-2.91905 l 0.32189,10.12364 9.79912,-7.47418 c 7.13091,-5.43901 13.7857,-7.55418 24.4398,-7.76803 26.47955,-0.53159 55.86601,-13.3708 65.04001,-28.41678 12.54896,-20.5811 3.97556,-48.8382 -18.1979,-59.97853 -20.15791,-10.12768 -64.37282,-3.85581 -81.39086,11.54528 -5.51478,4.99083 -5.49605,5.35166 0.80769,15.55135 7.73029,12.50786 8.22893,31.80528 1.17425,45.44739 -4.54762,8.79413 -26.38657,27.37491 -32.17524,27.37491 -5.83048,0 -1.57695,-4.98552 10.5003,-12.30549 15.75362,-9.54882 24.34157,-25.72512 22.18668,-41.79111 -4.99173,-37.21623 -48.842522,-51.71521 -92.173395,-30.47653 -31.167702,15.27693 -42.2530102,29.36619 -42.2289859,53.67311 0.027698,27.50544 20.2406669,41.32729 57.0879559,39.0367 15.92411,-0.98998 24.990465,-0.14979 30.891588,2.86686 8.268527,4.22511 8.334937,4.18375 6.619787,-4.1191 -1.497822,-7.25768 -0.876088,-6.83137 4.63703,3.16612 3.50321,6.35424 5.82229,12.10046 5.15364,12.76932 -0.66978,0.66895 -7.3382,-1.88301 -14.82052,-5.67112 z M 40.975512,261.36741 c 1.811521,-1.81094 11.885932,-6.37526 22.388774,-10.14286 10.502852,-3.7676 21.800956,-7.8873 25.106614,-9.15486 5.339863,-2.04749 5.507449,-1.80304 1.503481,2.19134 -3.85478,3.84469 -44.722445,20.39899 -50.359063,20.39899 -1.062605,0 -0.449346,-1.48172 1.362175,-3.29269 z M 153.12017,250.3853 c 0.0621,-3.70414 42.1188,-19.58723 54.68821,-20.65288 13.68162,-1.15983 12.67695,3.46643 -1.41699,6.52535 -5.35286,1.16181 -19.19893,5.31344 -30.76903,9.22591 -24.18151,8.17712 -22.55009,7.82175 -22.50214,4.90162 z M 47.900538,243.51391 c 0,-1.31696 1.69,-3.07682 3.75643,-3.91051 2.602821,-1.05045 2.371084,-1.6428 -0.75174,-1.92936 -2.478465,-0.22891 11.676804,-5.67443 31.458229,-12.10424 19.781403,-6.42978 36.522303,-11.13425 37.202203,-10.45436 1.35114,1.35116 0.38322,1.78524 -42.364886,18.99624 -16.115436,6.48837 -29.300802,10.71941 -29.300802,9.40235 z M 26.864051,231.90124 c 0,-2.92582 9.980869,-7.83487 39.580378,-19.46737 21.333796,-8.38411 29.53958,-9.73778 29.53958,-4.87295 0,1.65297 -1.941512,3.00522 -4.312298,3.00522 -2.371072,0 -8.119037,1.44752 -12.772178,3.21646 -4.652855,1.76913 -9.136149,3.25478 -9.9625,3.30158 -0.825212,0.048 -3.671925,1.24602 -6.323071,2.66499 -12.084886,6.46766 -35.749911,14.51195 -35.749911,12.15221 z m 132.229529,-6.54558 c 0,-2.7574 56.88842,-28.02293 58.79782,-26.11351 0.88739,0.88739 -2.51266,3.05174 -7.55565,4.80972 -5.043,1.75813 -9.16909,3.8829 -9.16909,4.72202 0,0.83907 5.40941,-0.38293 12.02088,-2.71557 6.6115,-2.33266 12.0209,-3.23867 12.0209,-2.0133 0,1.22538 -14.87585,6.94694 -33.05741,12.71461 -18.1816,5.7677 -33.05745,9.63588 -33.05745,8.59603 z m 3.00521,-21.61168 c 4.89426,-5.07055 27.04701,-12.08604 27.04701,-8.56543 0,1.85334 -8.5069,5.54308 -27.04701,11.73111 -4.00696,1.3373 -4.00696,0.98575 0,-3.16568 z"
       id="path5659"
       inkscape:connector-curvature="0" />
  </g>
</svg>
